<!-- TabBar Medicine Icon - Inactive -->
<svg width="24" height="24" viewBox="0 0 24 24" fill="none" xmlns="http://www.w3.org/2000/svg">
  <path d="M10.5 20.5L10.5 3.5C10.5 2.67157 11.1716 2 12 2C12.8284 2 13.5 2.67157 13.5 3.5L13.5 20.5C13.5 21.3284 12.8284 22 12 22C11.1716 22 10.5 21.3284 10.5 20.5Z" stroke="#999999" stroke-width="2"/>
  <path d="M3.5 12.5L20.5 12.5C21.3284 12.5 22 11.8284 22 11C22 10.1716 21.3284 9.5 20.5 9.5L3.5 9.5C2.67157 9.5 2 10.1716 2 11C2 11.8284 2.67157 12.5 3.5 12.5Z" stroke="#999999" stroke-width="2"/>
</svg>
