<!-- TabBar Medicine Icon (Active) -->
<svg width="24" height="24" viewBox="0 0 24 24" xmlns="http://www.w3.org/2000/svg">
  <path d="M19.5 12C19.5 12.8284 18.8284 13.5 18 13.5C17.1716 13.5 16.5 12.8284 16.5 12C16.5 11.1716 17.1716 10.5 18 10.5C18.8284 10.5 19.5 11.1716 19.5 12Z" fill="#2196F3"/>
  <path d="M12 19.5C12 18.6716 11.3284 18 10.5 18H7.5C6.67157 18 6 18.6716 6 19.5C6 20.3284 6.67157 21 7.5 21H10.5C11.3284 21 12 20.3284 12 19.5Z" fill="#2196F3"/>
  <path d="M16.5 12C16.5 12.8284 15.8284 13.5 15 13.5H9C8.17157 13.5 7.5 12.8284 7.5 12C7.5 11.1716 8.17157 10.5 9 10.5H15C15.8284 10.5 16.5 11.1716 16.5 12Z" fill="#2196F3"/>
  <path d="M6 4.5C6 5.32843 5.32843 6 4.5 6C3.67157 6 3 5.32843 3 4.5C3 3.67157 3.67157 3 4.5 3C5.32843 3 6 3.67157 6 4.5Z" fill="#2196F3"/>
  <path d="M6 4.5C6 5.32843 5.32843 6 4.5 6C3.67157 6 3 5.32843 3 4.5C3 3.67157 3.67157 3 4.5 3C5.32843 3 6 3.67157 6 4.5Z" fill="#2196F3"/>
  <path d="M18 4.5C18 5.32843 17.3284 6 16.5 6C15.6716 6 15 5.32843 15 4.5C15 3.67157 15.6716 3 16.5 3C17.3284 3 18 3.67157 18 4.5Z" fill="#2196F3"/>
  <path d="M10.5 6C10.5 6.82843 9.82843 7.5 9 7.5C8.17157 7.5 7.5 6.82843 7.5 6H10.5Z" fill="#2196F3"/>
  <path d="M16.5 6H18V7.5C18 8.32843 17.3284 9 16.5 9C15.6716 9 15 8.32843 15 7.5V6Z" fill="#2196F3"/>
</svg>
